# xmcd
#
# Track frame offsets:
#	150
#	17422
#	31102
#	48885
#	64967
#	83092
#	96077
#	120325
#	136855
#	152392
#	172592
#	188052
#	203725
#	222085
#
# Disc length: 3199
#
# Revision: 1
# Processed by: cddbd v1.5.1PL0 Copyright (c) Steve Scherf et al.
# Submitted via: VisiTrax 2.9.3.171 - For more info visit www.synapsa.com
# Normalized: r0:DSETVAR1
#
DISCID=9d0c7d0e
DTITLE=Various Artist - Mr Music Country 3-00
DYEAR=1900
DGENRE=
TTITLE0=Doug Sahm - Louis Riel
TTITLE1=Dolly Parton - Steady As The Rain
TTITLE2=Sammy Kershaw - How Much Does The World Weigh
TTITLE3=Stella Parton - Picture In a Frame
TTITLE4=Riders In The Sky - Red River Valley
TTITLE5=Brad Lee - What Took You So Long
TTITLE6=Lucinda Williams - Lake Charles
TTITLE7=Shane Minor - A Girl Like That
TTITLE8=Laurie Lewis - Slow Learner
TTITLE9=Dick Curless - I Never Go Around Mirrors
TTITLE10=Jenny Simpson - Ticket Out Of Kansas
TTITLE11=Guy Clark - Indian Head Penny
TTITLE12=John and Audrey Wiggins - Be Still M Heart
TTITLE13=Randy Travis - You And You Alone
EXTD=
EXTT0=
EXTT1=
EXTT2=
EXTT3=
EXTT4=
EXTT5=
EXTT6=
EXTT7=
EXTT8=
EXTT9=
EXTT10=
EXTT11=
EXTT12=
EXTT13=
PLAYORDER=
